<svg width="80" height="80" viewBox="0 0 80 80" fill="none" xmlns="http://www.w3.org/2000/svg">
<g clip-path="url(#clip0_158_1863)">
<mask id="mask0_158_1863" style="mask-type:luminance" maskUnits="userSpaceOnUse" x="0" y="0" width="80" height="80">
<path d="M80 40C80 17.9086 62.0914 0 40 0C17.9086 0 0 17.9086 0 40C0 62.0914 17.9086 80 40 80C62.0914 80 80 62.0914 80 40Z" fill="white"/>
</mask>
<g mask="url(#mask0_158_1863)">
<path d="M80 0H0V80H80V0Z" fill="#405059"/>
<path d="M34.9164 -17.9311L6.86062 39.5918C2.98693 47.534 6.28514 57.1127 14.2274 60.9864L71.7502 89.0422C79.6925 92.9159 89.2712 89.6176 93.1449 81.6754L121.201 24.1526C125.074 16.2103 121.776 6.63162 113.834 2.75793L56.311 -25.2978C48.3688 -29.1715 38.7901 -25.8733 34.9164 -17.9311Z" fill="#FFDA05"/>
<path d="M32.673 37.0444C36.8608 39.719 41.2809 40.1836 45.9333 38.4381" stroke="black" stroke-width="2.22222" stroke-linecap="round"/>
<path d="M32.9617 23.668C33.09 22.4474 32.4519 21.3799 31.5364 21.2837C30.621 21.1875 29.7749 22.099 29.6466 23.3195C29.5183 24.5401 30.1564 25.6076 31.0719 25.7038C31.9873 25.8 32.8334 24.8886 32.9617 23.668Z" fill="black"/>
<path d="M50.6421 25.5263C50.7704 24.3057 50.1323 23.2382 49.2169 23.142C48.3014 23.0458 47.4553 23.9572 47.327 25.1778C47.1988 26.3984 47.8369 27.4659 48.7523 27.5621C49.6677 27.6583 50.5138 26.7468 50.6421 25.5263Z" fill="black"/>
</g>
</g>
<defs>
<clipPath id="clip0_158_1863">
<rect width="80" height="80" fill="white"/>
</clipPath>
</defs>
</svg>
