<svg width="33" height="33" viewBox="0 0 33 33" fill="none" xmlns="http://www.w3.org/2000/svg">
<rect width="33" height="33" rx="16.5" fill="#3E3BFF"/>
<path d="M8.02484 21H7.10484V13.37H8.02484V21ZM10.9346 21H10.0146V13.37H11.6646L13.7146 19.86L15.7646 13.37H17.4246V21H16.5046V13.92L14.1746 21H13.2646L10.9346 13.97V21ZM22.7188 21.1C21.9254 21.1 21.2554 20.92 20.7088 20.56C20.1688 20.1933 19.7688 19.7167 19.5088 19.13C19.2488 18.5367 19.1188 17.89 19.1188 17.19C19.1188 16.49 19.2488 15.8433 19.5088 15.25C19.7754 14.6567 20.1754 14.18 20.7088 13.82C21.2488 13.4533 21.9154 13.27 22.7088 13.27C23.5354 13.27 24.2221 13.47 24.7688 13.87C25.3221 14.2633 25.7088 14.7967 25.9288 15.47H24.8988C24.7254 15.0433 24.4488 14.7067 24.0688 14.46C23.6888 14.2133 23.2288 14.09 22.6888 14.09C22.0954 14.09 21.5988 14.2333 21.1988 14.52C20.8054 14.8 20.5121 15.1733 20.3188 15.64C20.1321 16.1067 20.0388 16.6133 20.0388 17.16C20.0388 17.7333 20.1388 18.2567 20.3388 18.73C20.5388 19.2033 20.8388 19.58 21.2388 19.86C21.6454 20.14 22.1354 20.28 22.7088 20.28C23.4554 20.28 24.0488 20.06 24.4888 19.62C24.9354 19.18 25.1588 18.5833 25.1588 17.83H23.3288V17.01H26.0588V21H25.2188V19.91C24.9588 20.2967 24.6021 20.5933 24.1488 20.8C23.7021 21 23.2254 21.1 22.7188 21.1Z" fill="white"/>
</svg>
