<svg width="33" height="33" viewBox="0 0 33 33" fill="none" xmlns="http://www.w3.org/2000/svg">
<rect width="33" height="33" rx="16.5" fill="#3BADFF"/>
<path d="M5.93492 21V13.37H8.03492C9.30159 13.37 10.2716 13.7033 10.9449 14.37C11.6183 15.0367 11.9549 15.9833 11.9549 17.21C11.9549 18.4167 11.6149 19.35 10.9349 20.01C10.2616 20.67 9.29159 21 8.02492 21H5.93492ZM8.01492 20.17C8.93492 20.17 9.66826 19.9533 10.2149 19.52C10.7616 19.0867 11.0349 18.3167 11.0349 17.21C11.0349 15.2033 10.0316 14.2 8.02492 14.2H6.85492V20.17H8.01492ZM16.9091 21.1C16.1425 21.1 15.4925 20.9233 14.9591 20.57C14.4258 20.2167 14.0258 19.7433 13.7591 19.15C13.4991 18.55 13.3691 17.8933 13.3691 17.18C13.3691 16.4667 13.4991 15.8133 13.7591 15.22C14.0258 14.6267 14.4258 14.1533 14.9591 13.8C15.4925 13.4467 16.1425 13.27 16.9091 13.27C17.6825 13.27 18.3358 13.4467 18.8691 13.8C19.4091 14.1533 19.8091 14.6267 20.0691 15.22C20.3358 15.8067 20.4691 16.46 20.4691 17.18C20.4691 17.9 20.3358 18.5567 20.0691 19.15C19.8091 19.7433 19.4091 20.2167 18.8691 20.57C18.3358 20.9233 17.6825 21.1 16.9091 21.1ZM16.9091 20.27C17.4691 20.27 17.9458 20.14 18.3391 19.88C18.7391 19.6133 19.0391 19.2467 19.2391 18.78C19.4458 18.3133 19.5491 17.78 19.5491 17.18C19.5491 16.58 19.4458 16.05 19.2391 15.59C19.0391 15.1233 18.7391 14.76 18.3391 14.5C17.9458 14.2333 17.4691 14.1 16.9091 14.1C16.3558 14.1 15.8825 14.2333 15.4891 14.5C15.0958 14.76 14.7958 15.1233 14.5891 15.59C14.3891 16.05 14.2891 16.58 14.2891 17.18C14.2891 17.78 14.3891 18.3133 14.5891 18.78C14.7958 19.2467 15.0958 19.6133 15.4891 19.88C15.8825 20.14 16.3558 20.27 16.9091 20.27ZM25.3946 21.1C24.6213 21.1 23.9713 20.9233 23.4446 20.57C22.9179 20.21 22.5246 19.7333 22.2646 19.14C22.0046 18.5467 21.8746 17.8933 21.8746 17.18C21.8746 16.4667 22.0046 15.8133 22.2646 15.22C22.5246 14.6267 22.9179 14.1533 23.4446 13.8C23.9713 13.4467 24.6213 13.27 25.3946 13.27C25.9479 13.27 26.4413 13.3633 26.8746 13.55C27.3079 13.7367 27.6579 13.9967 27.9246 14.33C28.1913 14.6633 28.3646 15.0467 28.4446 15.48H27.4446C27.3513 15.0533 27.1179 14.7167 26.7446 14.47C26.3779 14.2167 25.9213 14.09 25.3746 14.09C24.8213 14.09 24.3513 14.2233 23.9646 14.49C23.5779 14.75 23.2846 15.1133 23.0846 15.58C22.8913 16.0467 22.7946 16.58 22.7946 17.18C22.7946 17.7867 22.8913 18.3233 23.0846 18.79C23.2846 19.2567 23.5779 19.6233 23.9646 19.89C24.3513 20.15 24.8213 20.28 25.3746 20.28C25.9346 20.28 26.3946 20.1467 26.7546 19.88C27.1213 19.6067 27.3513 19.21 27.4446 18.69H28.4446C28.3246 19.4367 27.9946 20.0267 27.4546 20.46C26.9213 20.8867 26.2346 21.1 25.3946 21.1Z" fill="white"/>
</svg>
