<svg width="33" height="33" viewBox="0 0 33 33" fill="none" xmlns="http://www.w3.org/2000/svg">
<rect width="33" height="33" rx="16.5" fill="#FF3B3B"/>
<path d="M8.02672 21V13.37H10.8667C11.6201 13.37 12.2101 13.5567 12.6367 13.93C13.0701 14.2967 13.2867 14.8367 13.2867 15.55C13.2867 16.2433 13.0667 16.79 12.6267 17.19C12.1934 17.5833 11.6067 17.78 10.8667 17.78H8.94672V21H8.02672ZM10.7467 16.96C11.2734 16.96 11.6767 16.8433 11.9567 16.61C12.2367 16.37 12.3767 16.0267 12.3767 15.58C12.3767 15.14 12.2334 14.8 11.9467 14.56C11.6601 14.32 11.2601 14.2 10.7467 14.2H8.94672V16.96H10.7467ZM14.8232 21V13.37H16.9232C18.1899 13.37 19.1599 13.7033 19.8332 14.37C20.5065 15.0367 20.8432 15.9833 20.8432 17.21C20.8432 18.4167 20.5032 19.35 19.8232 20.01C19.1499 20.67 18.1799 21 16.9132 21H14.8232ZM16.9032 20.17C17.8232 20.17 18.5565 19.9533 19.1032 19.52C19.6499 19.0867 19.9232 18.3167 19.9232 17.21C19.9232 15.2033 18.9199 14.2 16.9132 14.2H15.7432V20.17H16.9032ZM23.4674 21H22.5474V13.37H27.4774V14.2H23.4674V16.76H27.0074V17.58H23.4674V21Z" fill="white"/>
</svg>
