<svg width="20" height="20" viewBox="0 0 20 20" fill="none" xmlns="http://www.w3.org/2000/svg">
<path d="M11.3215 2.57153L11.675 2.21798L11.675 2.21798L11.3215 2.57153ZM15.7618 7.01188L16.1154 6.65833V6.65833L15.7618 7.01188ZM7.08333 18.4167C7.35948 18.4167 7.58333 18.1929 7.58333 17.9167C7.58333 17.6406 7.35948 17.4167 7.08333 17.4167V18.4167ZM12.9167 17.4167C12.6405 17.4167 12.4167 17.6406 12.4167 17.9167C12.4167 18.1929 12.6405 18.4167 12.9167 18.4167V17.4167ZM15.8333 8.00004C16.1095 8.00004 16.3333 7.77618 16.3333 7.50004C16.3333 7.2239 16.1095 7.00004 15.8333 7.00004V8.00004ZM10.5 11.25C10.5 10.9739 10.2761 10.75 10 10.75C9.72386 10.75 9.5 10.9739 9.5 11.25H10.5ZM10 16.875L9.64645 17.2286C9.84171 17.4239 10.1583 17.4239 10.3536 17.2286L10 16.875ZM12.4369 15.1453C12.6321 14.95 12.6321 14.6334 12.4369 14.4382C12.2416 14.2429 11.925 14.2429 11.7298 14.4382L12.4369 15.1453ZM8.27022 14.4382C8.07496 14.2429 7.75838 14.2429 7.56311 14.4382C7.36785 14.6334 7.36785 14.95 7.56311 15.1453L8.27022 14.4382ZM6.25 2.08337V2.58337H10.143V2.08337V1.58337H6.25V2.08337ZM16.25 8.1904H15.75V15.4167H16.25H16.75V8.1904H16.25ZM11.3215 2.57153L10.9679 2.92508L15.4083 7.36544L15.7618 7.01188L16.1154 6.65833L11.675 2.21798L11.3215 2.57153ZM3.75 15.4167H4.25V4.58337H3.75H3.25V15.4167H3.75ZM7.08333 17.9167V17.4167H6.25V17.9167V18.4167H7.08333V17.9167ZM13.75 17.9167V17.4167H12.9167V17.9167V18.4167H13.75V17.9167ZM3.75 15.4167H3.25C3.25 17.0736 4.59315 18.4167 6.25 18.4167V17.9167V17.4167C5.14543 17.4167 4.25 16.5213 4.25 15.4167H3.75ZM16.25 8.1904H16.75C16.75 7.61576 16.5217 7.06466 16.1154 6.65833L15.7618 7.01188L15.4083 7.36544C15.6271 7.58423 15.75 7.88098 15.75 8.1904H16.25ZM10.143 2.08337V2.58337C10.4524 2.58337 10.7491 2.70629 10.9679 2.92508L11.3215 2.57153L11.675 2.21798C11.2687 1.81165 10.7176 1.58337 10.143 1.58337V2.08337ZM16.25 15.4167H15.75C15.75 16.5213 14.8546 17.4167 13.75 17.4167V17.9167V18.4167C15.4069 18.4167 16.75 17.0736 16.75 15.4167H16.25ZM6.25 2.08337V1.58337C4.59315 1.58337 3.25 2.92652 3.25 4.58337H3.75H4.25C4.25 3.4788 5.14543 2.58337 6.25 2.58337V2.08337ZM10.8333 2.50004H10.3333V5.83337H10.8333H11.3333V2.50004H10.8333ZM12.5 7.50004V8.00004H15.8333V7.50004V7.00004H12.5V7.50004ZM10.8333 5.83337H10.3333C10.3333 7.02999 11.3034 8.00004 12.5 8.00004V7.50004V7.00004C11.8557 7.00004 11.3333 6.47771 11.3333 5.83337H10.8333ZM10 11.25H9.5V16.875H10H10.5V11.25H10ZM10 16.875L10.3536 17.2286L12.4369 15.1453L12.0833 14.7917L11.7298 14.4382L9.64645 16.5215L10 16.875ZM10 16.875L10.3536 16.5215L8.27022 14.4382L7.91667 14.7917L7.56311 15.1453L9.64645 17.2286L10 16.875Z" fill="white"/>
</svg>
