<svg width="20" height="20" viewBox="0 0 20 20" fill="none" xmlns="http://www.w3.org/2000/svg">
<path d="M11.1131 2.77978L11.6434 2.24945L11.6434 2.24945L11.1131 2.77978ZM15.5534 7.22014L16.0838 6.68981L16.0838 6.68981L15.5534 7.22014ZM7.29159 10.2916C6.87737 10.2916 6.54159 10.6274 6.54159 11.0416C6.54159 11.4558 6.87737 11.7916 7.29159 11.7916V10.2916ZM10.2083 11.7916C10.6225 11.7916 10.9583 11.4558 10.9583 11.0416C10.9583 10.6274 10.6225 10.2916 10.2083 10.2916V11.7916ZM7.29159 13.625C6.87737 13.625 6.54159 13.9607 6.54159 14.375C6.54159 14.7892 6.87737 15.125 7.29159 15.125V13.625ZM12.7083 15.125C13.1225 15.125 13.4583 14.7892 13.4583 14.375C13.4583 13.9607 13.1225 13.625 12.7083 13.625V15.125ZM6.45825 2.29163V3.04163H9.93456V2.29163V1.54163H6.45825V2.29163ZM16.0416 8.39865H15.2916V15.2083H16.0416H16.7916V8.39865H16.0416ZM11.1131 2.77978L10.5827 3.31011L15.0231 7.75047L15.5534 7.22014L16.0838 6.68981L11.6434 2.24945L11.1131 2.77978ZM3.95825 15.2083H4.70825V4.79163H3.95825H3.20825V15.2083H3.95825ZM13.5416 17.7083V16.9583H6.45825V17.7083V18.4583H13.5416V17.7083ZM3.95825 15.2083H3.20825C3.20825 17.0032 4.66333 18.4583 6.45825 18.4583V17.7083V16.9583C5.49175 16.9583 4.70825 16.1748 4.70825 15.2083H3.95825ZM16.0416 8.39865H16.7916C16.7916 7.75771 16.537 7.14302 16.0838 6.68981L15.5534 7.22014L15.0231 7.75047C15.195 7.92238 15.2916 8.15553 15.2916 8.39865H16.0416ZM9.93456 2.29163V3.04163C10.1777 3.04163 10.4108 3.1382 10.5827 3.31011L11.1131 2.77978L11.6434 2.24945C11.1902 1.79624 10.5755 1.54163 9.93456 1.54163V2.29163ZM16.0416 15.2083H15.2916C15.2916 16.1748 14.5081 16.9583 13.5416 16.9583V17.7083V18.4583C15.3365 18.4583 16.7916 17.0032 16.7916 15.2083H16.0416ZM6.45825 2.29163V1.54163C4.66333 1.54163 3.20825 2.9967 3.20825 4.79163H3.95825H4.70825C4.70825 3.82513 5.49175 3.04163 6.45825 3.04163V2.29163ZM10.6249 2.70829H9.87492V6.04163H10.6249H11.3749V2.70829H10.6249ZM12.2916 7.70829V8.45829H15.6249V7.70829V6.95829H12.2916V7.70829ZM10.6249 6.04163H9.87492C9.87492 7.37631 10.9569 8.45829 12.2916 8.45829V7.70829V6.95829C11.7853 6.95829 11.3749 6.54789 11.3749 6.04163H10.6249ZM7.29159 11.0416V11.7916H10.2083V11.0416V10.2916H7.29159V11.0416ZM7.29159 14.375V15.125H12.7083V14.375V13.625H7.29159V14.375Z" fill="white"/>
</svg>
