<svg width="25" height="24" viewBox="0 0 25 24" fill="none" xmlns="http://www.w3.org/2000/svg">
<path fill-rule="evenodd" clip-rule="evenodd" d="M4 3.5C4 2.94772 4.44772 2.5 5 2.5H20C20.5523 2.5 21 2.94772 21 3.5V20.5C21 21.0523 20.5523 21.5 20 21.5H5C4.44772 21.5 4 21.0523 4 20.5V17C3.44772 17 3 16.5523 3 16C3 15.4477 3.44772 15 4 15V13C3.44772 13 3 12.5523 3 12C3 11.4477 3.44772 11 4 11V9C3.44772 9 3 8.55228 3 8C3 7.44772 3.44772 7 4 7V3.5ZM9.5 8C9.5 7.44772 9.94772 7 10.5 7H14.5C15.0523 7 15.5 7.44772 15.5 8C15.5 8.55228 15.0523 9 14.5 9H10.5C9.94772 9 9.5 8.55228 9.5 8ZM9.5 12C9.5 11.4477 9.94772 11 10.5 11H12.5C13.0523 11 13.5 11.4477 13.5 12C13.5 12.5523 13.0523 13 12.5 13H10.5C9.94772 13 9.5 12.5523 9.5 12Z" fill="white"/>
</svg>
