<svg width="25" height="24" viewBox="0 0 25 24" fill="none" xmlns="http://www.w3.org/2000/svg">
<path d="M13.8358 3.33579L14.3661 2.80546V2.80546L13.8358 3.33579ZM19.1642 8.66421L19.6945 8.13388L19.6945 8.13388L19.1642 8.66421ZM9.25 12.5C8.83579 12.5 8.5 12.8358 8.5 13.25C8.5 13.6642 8.83579 14 9.25 14V12.5ZM12.75 14C13.1642 14 13.5 13.6642 13.5 13.25C13.5 12.8358 13.1642 12.5 12.75 12.5V14ZM9.25 16.5C8.83579 16.5 8.5 16.8358 8.5 17.25C8.5 17.6642 8.83579 18 9.25 18V16.5ZM15.75 18C16.1642 18 16.5 17.6642 16.5 17.25C16.5 16.8358 16.1642 16.5 15.75 16.5V18ZM8.25 2.75V3.5H12.4216V2.75V2H8.25V2.75ZM19.75 10.0784H19V18.25H19.75H20.5V10.0784H19.75ZM13.8358 3.33579L13.3055 3.86612L18.6339 9.19454L19.1642 8.66421L19.6945 8.13388L14.3661 2.80546L13.8358 3.33579ZM5.25 18.25H6V5.75H5.25H4.5V18.25H5.25ZM16.75 21.25V20.5H8.25V21.25V22H16.75V21.25ZM5.25 18.25H4.5C4.5 20.3211 6.17893 22 8.25 22V21.25V20.5C7.00736 20.5 6 19.4926 6 18.25H5.25ZM19.75 10.0784H20.5C20.5 9.34908 20.2103 8.64961 19.6945 8.13388L19.1642 8.66421L18.6339 9.19454C18.8683 9.42896 19 9.74691 19 10.0784H19.75ZM12.4216 2.75V3.5C12.7531 3.5 13.071 3.6317 13.3055 3.86612L13.8358 3.33579L14.3661 2.80546C13.8504 2.28973 13.1509 2 12.4216 2V2.75ZM19.75 18.25H19C19 19.4926 17.9926 20.5 16.75 20.5V21.25V22C18.8211 22 20.5 20.3211 20.5 18.25H19.75ZM8.25 2.75V2C6.17893 2 4.5 3.67893 4.5 5.75H5.25H6C6 4.50736 7.00736 3.5 8.25 3.5V2.75ZM13.25 3.25H12.5V7.25H13.25H14V3.25H13.25ZM15.25 9.25V10H19.25V9.25V8.5H15.25V9.25ZM13.25 7.25H12.5C12.5 8.76878 13.7312 10 15.25 10V9.25V8.5C14.5596 8.5 14 7.94036 14 7.25H13.25ZM9.25 13.25V14H12.75V13.25V12.5H9.25V13.25ZM9.25 17.25V18H15.75V17.25V16.5H9.25V17.25Z" fill="white"/>
</svg>
