<svg width="20" height="21" viewBox="0 0 20 21" fill="none" xmlns="http://www.w3.org/2000/svg">
<path fill-rule="evenodd" clip-rule="evenodd" d="M3.33337 4.66663C3.33337 3.28591 4.45266 2.16663 5.83337 2.16663H14.1667C15.5474 2.16663 16.6667 3.28591 16.6667 4.66663V10.5181C15.8248 9.97912 14.8239 9.66663 13.75 9.66663C10.7585 9.66663 8.33337 12.0918 8.33337 15.0833C8.33337 16.5387 8.90738 17.86 9.84135 18.8333H5.83337C4.45266 18.8333 3.33337 17.714 3.33337 16.3333V4.66663ZM5.83337 5.49996C5.83337 5.03972 6.20647 4.66663 6.66671 4.66663H11.6667C12.1269 4.66663 12.5 5.03972 12.5 5.49996C12.5 5.9602 12.1269 6.33329 11.6667 6.33329H6.66671C6.20647 6.33329 5.83337 5.9602 5.83337 5.49996ZM5.83337 8.83329C5.83337 8.37306 6.20647 7.99996 6.66671 7.99996H9.16671C9.62694 7.99996 10 8.37306 10 8.83329C10 9.29353 9.62694 9.66663 9.16671 9.66663H6.66671C6.20647 9.66663 5.83337 9.29353 5.83337 8.83329Z" fill="white"/>
<path fill-rule="evenodd" clip-rule="evenodd" d="M13.75 11.3333C11.679 11.3333 10 13.0122 10 15.0833C10 17.1544 11.679 18.8333 13.75 18.8333C14.4899 18.8333 15.1803 18.6185 15.7614 18.2486L16.4844 18.996C16.8044 19.3268 17.332 19.3356 17.6628 19.0156C17.9936 18.6956 18.0023 18.168 17.6823 17.8372L16.9345 17.0643C17.2927 16.4895 17.5 15.8102 17.5 15.0833C17.5 13.0122 15.8211 11.3333 13.75 11.3333ZM11.6667 15.0833C11.6667 13.9327 12.5994 13 13.75 13C14.9006 13 15.8334 13.9327 15.8334 15.0833C15.8334 15.6512 15.6072 16.1647 15.2382 16.5413C14.8591 16.9282 14.3332 17.1666 13.75 17.1666C12.5994 17.1666 11.6667 16.2339 11.6667 15.0833Z" fill="white"/>
</svg>
