<svg width="20" height="20" viewBox="0 0 20 20" fill="none" xmlns="http://www.w3.org/2000/svg">
<path d="M4.69102 16.1489L5.43947 16.1006L4.69102 16.1489ZM15.3089 16.1489L14.5605 16.1006L14.5605 16.1006L15.3089 16.1489ZM2.29163 4.04163C1.87741 4.04163 1.54163 4.37741 1.54163 4.79163C1.54163 5.20584 1.87741 5.54163 2.29163 5.54163V4.04163ZM17.7083 5.54163C18.1225 5.54163 18.4583 5.20584 18.4583 4.79163C18.4583 4.37741 18.1225 4.04163 17.7083 4.04163V5.54163ZM12.502 4.97857C12.6052 5.37971 13.0141 5.6212 13.4152 5.51795C13.8164 5.41471 14.0579 5.00582 13.9546 4.60468L12.502 4.97857ZM3.95829 4.79163L3.20985 4.83991L3.94258 16.1972L4.69102 16.1489L5.43947 16.1006L4.70674 4.74334L3.95829 4.79163ZM6.35423 17.7083V18.4583H13.6457V17.7083V16.9583H6.35423V17.7083ZM15.3089 16.1489L16.0573 16.1972L16.7901 4.83991L16.0416 4.79163L15.2932 4.74334L14.5605 16.1006L15.3089 16.1489ZM16.0416 4.79163V4.04163H3.95829V4.79163V5.54163H16.0416V4.79163ZM2.29163 4.79163V5.54163H3.95829V4.79163V4.04163H2.29163V4.79163ZM16.0416 4.79163V5.54163H17.7083V4.79163V4.04163H16.0416V4.79163ZM13.6457 17.7083V18.4583C14.92 18.4583 15.9753 17.4689 16.0573 16.1972L15.3089 16.1489L14.5605 16.1006C14.5293 16.583 14.129 16.9583 13.6457 16.9583V17.7083ZM4.69102 16.1489L3.94258 16.1972C4.02462 17.4689 5.07995 18.4583 6.35423 18.4583V17.7083V16.9583C5.87088 16.9583 5.47059 16.583 5.43947 16.1006L4.69102 16.1489ZM9.99998 2.29163V3.04163C11.2027 3.04163 12.2151 3.8642 12.502 4.97857L13.2283 4.79163L13.9546 4.60468C13.5014 2.84367 11.9037 1.54163 9.99998 1.54163V2.29163ZM6.77166 4.79163L7.49799 4.97857C7.7848 3.8642 8.79727 3.04163 9.99998 3.04163V2.29163V1.54163C8.09628 1.54163 6.49858 2.84367 6.04533 4.60468L6.77166 4.79163Z" fill="white"/>
</svg>
