<svg width="20" height="20" viewBox="0 0 20 20" fill="none" xmlns="http://www.w3.org/2000/svg">
<path d="M15.6964 3.8214L15.3451 3.47009C14.6943 2.81921 13.639 2.81922 12.9881 3.47009L2.77978 13.6784C2.46722 13.991 2.29163 14.4149 2.29163 14.8569V16.8749H4.3096C4.75163 16.8749 5.17555 16.6993 5.48811 16.3868L15.6964 6.17842C16.3473 5.52755 16.3473 4.47227 15.6964 3.8214Z" fill="white"/>
<path d="M17.5 14.9999C17.5 14.9999 16.3883 16.2869 15.1383 16.2869C13.8883 16.2869 12.8828 15.0958 11.6555 15.0958C10.4281 15.0958 9.71649 15.6549 8.95829 16.4582M15.3451 3.47009L15.6964 3.8214C16.3473 4.47227 16.3473 5.52755 15.6964 6.17842L5.48811 16.3868C5.17555 16.6993 4.75163 16.8749 4.3096 16.8749H2.29163V14.8569C2.29163 14.4149 2.46722 13.991 2.77978 13.6784L12.9881 3.47009C13.639 2.81922 14.6943 2.81921 15.3451 3.47009Z" stroke="white" stroke-width="1.5" stroke-linecap="round" stroke-linejoin="round"/>
</svg>
